<svg width="223" height="40" viewBox="0 0 223 40" fill="none" xmlns="http://www.w3.org/2000/svg">
<g style="mix-blend-mode:plus-darker" clip-path="url(#clip0_94_9260)">
<path d="M0 11.4288V5.71484H5.714V11.4288H0ZM5.715 11.4308L5.714 5.71484H11.429V11.4288H5.714L5.715 11.4308ZM11.43 11.4308V5.71484H17.144V11.4288H11.43V11.4308Z" fill="#808080"/>
<path d="M17.143 11.4288V5.71484H22.857V11.4288H17.143ZM0 17.1438V11.4298H5.714V17.1438H0ZM17.143 17.1438V11.4288H22.857V17.1438H17.143ZM0 22.8578V17.1438H5.714V22.8578H0Z" fill="#808080"/>
<path d="M5.71484 22.8566V17.1426H11.4288V22.8566H5.71484ZM11.4298 22.8566V17.1426H17.1438V22.8566H11.4298Z" fill="#17181C" fill-opacity="0.1"/>
<path d="M17.143 22.8566V17.1426H22.857V22.8566H17.143ZM0 28.5716V22.8566H5.714V28.5716H0Z" fill="#808080"/>
<path d="M5.71484 28.5724V22.8574H11.4288V28.5724H5.71484ZM11.4298 28.5724V22.8574H17.1438V28.5724H11.4298Z" fill="#17181C" fill-opacity="0.1"/>
<path d="M17.143 28.5724V22.8574H22.857V28.5724H17.143ZM0 34.2864V28.5704H5.714V34.2854L0 34.2864ZM5.715 34.2864L5.714 28.5704H11.429V34.2854L5.715 34.2864Z" fill="#808080"/>
<path d="M11.4297 34.2863V28.5703H17.1437V34.2853L11.4297 34.2863Z" fill="#808080"/>
<path d="M17.1445 34.2863V28.5703H22.8585V34.2853L17.1445 34.2863ZM51.4315 28.5703V34.2853H45.7165V28.5713L51.4315 28.5703ZM45.7165 28.5723V34.2853L40.0015 34.2863V28.5723H45.7165ZM40.0015 28.5723V34.2863H34.2875V28.5723H40.0015ZM34.2865 28.5703V34.2853H28.5725V28.5713L34.2865 28.5703ZM34.2865 34.2853V40.0003H28.5725V34.2853H34.2865Z" fill="#808080"/>
<path d="M51.4298 22.8574V28.5714H45.7148V22.8574H51.4298Z" fill="#808080"/>
<path d="M45.714 22.8574V28.5714H40V22.8574H45.714Z" fill="#17181C" fill-opacity="0.1"/>
<path d="M39.9992 22.8574V28.5714H34.2852V22.8574H39.9992Z" fill="#17181C" fill-opacity="0.1"/>
<path d="M34.2843 22.8566V28.5706H28.5703V22.8566H34.2843ZM51.4293 17.1426V22.8566H45.7143V17.1426H51.4293Z" fill="#808080"/>
<path d="M45.714 17.1426V22.8566H40V17.1426H45.714Z" fill="#17181C" fill-opacity="0.1"/>
<path d="M39.9992 17.1426V22.8566H34.2852V17.1426H39.9992Z" fill="#17181C" fill-opacity="0.1"/>
<path d="M34.2843 17.1427V22.8567H28.5703V17.1427H34.2843ZM51.4293 11.4277V17.1427H45.7143V11.4277H51.4293ZM34.2843 11.4277V17.1427H28.5703V11.4277H34.2843Z" fill="#808080"/>
<path d="M51.4293 5.71484V11.4298H45.7143V5.71484H51.4293ZM45.7143 5.71484V11.4298H39.9993V5.71484H45.7143ZM39.9993 5.71484V11.4298H34.2853V5.71484H39.9993ZM34.2853 5.71484V11.4298H28.5703V5.71484H34.2853ZM57.1423 11.4288V5.71484H62.8563V11.4288H57.1423ZM62.8563 11.4288V5.71484H68.5713V11.4288H62.8563Z" fill="#808080"/>
<path d="M68.5715 11.4308V5.71484H74.2865V11.4288H68.5715V11.4308ZM74.2865 11.4308V5.71484H80.0015V11.4288H74.2865V11.4308ZM57.1445 17.1438V11.4298H62.8585V17.1438H57.1445Z" fill="#808080"/>
<path d="M74.2865 17.1437V11.4297H80.0015V17.1437H74.2865ZM57.1445 22.8577V17.1437H62.8585V22.8577H57.1445ZM62.8585 22.8577V17.1437H68.5735V22.8577H62.8585Z" fill="#808080"/>
<path d="M68.5715 22.8566V17.1426H74.2865V22.8566H68.5715ZM74.2865 22.8566V17.1426H80.0015V22.8566H74.2865ZM57.1445 28.5716V22.8566H62.8585V28.5716H57.1445Z" fill="#808080"/>
<path d="M62.8555 28.5724V22.8574H68.5705V28.5724H62.8555Z" fill="#17181C" fill-opacity="0.1"/>
<path d="M68.5703 28.5724V22.8574H74.2853V28.5724H68.5703ZM74.2853 28.5724V22.8574H80.0003V28.5724H74.2853Z" fill="#17181C" fill-opacity="0.1"/>
<path d="M57.1445 34.2863V28.5703H62.8585V34.2853L57.1445 34.2863ZM62.8585 34.2853V28.5703H68.5735V34.2853H62.8585Z" fill="#808080"/>
<path d="M68.5703 34.2868V28.5708H74.2853V34.2858L68.5703 34.2868ZM74.2853 34.2858V28.5708H80.0003V34.2858H74.2853ZM85.7153 11.4308V5.71484H91.4293V11.4288H85.7153V11.4308ZM91.4303 11.4308L91.4293 5.71484H97.1443V11.4288H91.4293L91.4303 11.4308Z" fill="#808080"/>
<path d="M97.1428 11.4288V5.71484H102.857V11.4288H97.1428ZM85.7148 17.1438V11.4298H91.4288V17.1438H85.7148ZM102.857 17.1438V11.4288L108.572 11.4298V17.1438H102.857ZM85.7148 22.8578V17.1438H91.4288V22.8578H85.7148Z" fill="#808080"/>
<path d="M91.4297 22.8566V17.1426H97.1437V22.8566H91.4297Z" fill="#17181C" fill-opacity="0.1"/>
<path d="M97.1445 22.8566V17.1426H102.859V22.8566H97.1445Z" fill="#17181C" fill-opacity="0.1"/>
<path d="M102.857 22.8566V17.1426H108.572V22.8566H102.857ZM85.7148 28.5716V22.8566H91.4288V28.5716H85.7148Z" fill="#808080"/>
<path d="M91.4297 28.5724V22.8574H97.1437V28.5724H91.4297Z" fill="#17181C" fill-opacity="0.1"/>
<path d="M97.1445 28.5724V22.8574H102.859V28.5724H97.1445Z" fill="#17181C" fill-opacity="0.1"/>
<path d="M102.857 28.5724V22.8574H108.572V28.5724H102.857ZM85.7148 34.2864V28.5704H91.4288V34.2854L85.7148 34.2864Z" fill="#808080"/>
<path d="M91.4297 34.2863V28.5703H97.1437V34.2853L91.4297 34.2863Z" fill="#17181C" fill-opacity="0.1"/>
<path d="M97.1445 34.2863V28.5703H102.859V34.2853L97.1445 34.2863Z" fill="#17181C" fill-opacity="0.1"/>
<path d="M102.855 34.2863V28.5703H108.57V34.2853L102.855 34.2863Z" fill="#808080"/>
<path d="M114.285 11.4308V5.71484H119.999V11.4288H114.285V11.4308Z" fill="black"/>
<path d="M120 11.4288V5.71484H125.714V11.4288H120ZM125.715 11.4308L125.714 5.71484H131.429V11.4288H125.714L125.715 11.4308ZM131.43 11.4308L131.429 5.71484H137.144V11.4288H131.429L131.43 11.4308ZM114.285 17.1438V11.4298H119.999V17.1438H114.285ZM114.285 22.8578V17.1438H119.999V22.8578H114.285Z" fill="#17181C"/>
<path d="M120 22.8566V17.1426H125.714V22.8566H120ZM125.714 22.8566V17.1426H131.429V22.8566H125.714ZM131.429 22.8566V17.1426H137.144V22.8566H131.429Z" fill="#17181C" fill-opacity="0.1"/>
<path d="M114.285 28.5724V22.8574H119.999V28.5724H114.285Z" fill="#17181C"/>
<path d="M120 28.5724V22.8574H125.714V28.5724H120ZM125.714 28.5724V22.8574H131.429V28.5724H125.714ZM131.429 28.5724V22.8574H137.144V28.5724H131.429Z" fill="#17181C" fill-opacity="0.1"/>
<path d="M114.285 34.2868V28.5708H119.999V34.2858L114.285 34.2868ZM120 34.2868L119.999 28.5708H125.714V34.2858L120 34.2868ZM125.715 34.2868L125.714 28.5708H131.429V34.2858L125.715 34.2868ZM131.43 34.2868L131.429 28.5708H137.144V34.2858L131.43 34.2868ZM142.857 11.4288V5.71484H148.572V11.4288H142.857ZM148.572 11.4308V5.71484H154.287V11.4288H148.572V11.4308Z" fill="#17181C"/>
<path d="M154.283 11.4308V5.71484H159.997V11.4288H154.283V11.4308ZM159.998 11.4288V5.71484H165.712V11.4288H159.998ZM142.855 17.1438V11.4298H148.57V17.1438H142.855ZM159.998 17.1438V11.4288H165.712V17.1438H159.998ZM142.855 22.8578V17.1438H148.57V22.8578H142.855Z" fill="#17181C"/>
<path d="M148.57 22.8566V17.1426H154.285V22.8566H148.57Z" fill="#17181C" fill-opacity="0.1"/>
<path d="M154.285 22.8566V17.1426H159.999V22.8566H154.285Z" fill="#17181C" fill-opacity="0.1"/>
<path d="M159.998 22.8566V17.1426H165.712V22.8566H159.998ZM142.855 28.5716V22.8566H148.57V28.5716H142.855Z" fill="#17181C"/>
<path d="M148.57 28.5724V22.8574H154.285V28.5724H148.57Z" fill="#17181C" fill-opacity="0.1"/>
<path d="M154.285 28.5724V22.8574H159.999V28.5724H154.285Z" fill="#17181C" fill-opacity="0.1"/>
<path d="M159.998 28.5724V22.8574H165.712V28.5724H159.998ZM142.855 34.2864V28.5704H148.57V34.2854L142.855 34.2864ZM148.57 34.2854V28.5704H154.285V34.2854H148.57Z" fill="#17181C"/>
<path d="M154.285 34.2868V28.5708H159.999V34.2858L154.285 34.2868ZM160 34.2868V28.5708H165.714V34.2858L160 34.2868ZM171.43 11.4308V5.71484H177.144V11.4288H171.43V11.4308Z" fill="#17181C"/>
<path d="M177.145 11.4288V5.71484H182.859V11.4288H177.145ZM182.859 11.4288V5.71484H188.574V11.4288H182.859Z" fill="#17181C"/>
<path d="M188.57 11.43V5.714H194.285V11.428H188.57V11.43ZM188.57 5.714V0H194.285V5.714H188.57ZM171.43 17.143V11.429H177.144V17.143H171.43Z" fill="#17181C"/>
<path d="M188.57 17.1437V11.4297H194.285V17.1437H188.57ZM171.43 22.8577V17.1437H177.144V22.8577H171.43Z" fill="#17181C"/>
<path d="M177.145 22.8566V17.1426H182.859V22.8566H177.145ZM182.859 22.8566V17.1426H188.574V22.8566H182.859Z" fill="#17181C" fill-opacity="0.1"/>
<path d="M188.57 22.8566V17.1426H194.285V22.8566H188.57ZM171.43 28.5716V22.8566H177.144V28.5716H171.43Z" fill="#17181C"/>
<path d="M177.145 28.5724V22.8574H182.859V28.5724H177.145ZM182.859 28.5724V22.8574H188.574V28.5724H182.859Z" fill="#17181C" fill-opacity="0.1"/>
<path d="M188.57 28.5724V22.8574H194.285V28.5724H188.57ZM171.43 34.2864V28.5704H177.144V34.2854L171.43 34.2864Z" fill="#17181C"/>
<path d="M177.145 34.2863V28.5703H182.859V34.2853L177.145 34.2863ZM182.859 34.2853V28.5703H188.574V34.2853H182.859Z" fill="#17181C"/>
<path d="M188.57 34.2868V28.5708H194.285V34.2858L188.57 34.2868ZM200 11.4288V5.71484H205.714V11.4288H200ZM205.715 11.4308L205.714 5.71484H211.429V11.4288H205.714L205.715 11.4308ZM211.43 11.4308L211.429 5.71484H217.144V11.4288H211.429L211.43 11.4308Z" fill="#17181C"/>
<path d="M217.143 11.4288V5.71484H222.857V11.4288H217.143ZM200 17.1438V11.4298H205.714V17.1438H200ZM217.143 17.1438V11.4288H222.857V17.1438H217.143ZM200 22.8578V17.1438H205.714V22.8578H200ZM205.714 22.8578V17.1438H211.429V22.8578H205.714ZM211.429 22.8578V17.1438H217.143L217.144 22.8578H211.429Z" fill="#17181C"/>
<path d="M217.143 22.8566V17.1426H222.857V22.8566H217.143ZM200 28.5716V22.8566H205.714V28.5716H200Z" fill="#17181C"/>
<path d="M205.715 28.5724V22.8574H211.429V28.5724H205.715ZM211.429 28.5724V22.8574H217.144V28.5724H211.429Z" fill="#17181C" fill-opacity="0.1"/>
<path d="M217.145 28.5724V22.8574H222.859V28.5724H217.145Z" fill="#17181C" fill-opacity="0.1"/>
<path d="M200 34.2863V28.5703H205.714V34.2853L200 34.2863ZM205.715 34.2863L205.714 28.5703H211.429V34.2853L205.715 34.2863ZM211.43 34.2863L211.429 28.5703H217.144V34.2853L211.43 34.2863Z" fill="#17181C"/>
<path d="M217.145 34.2863V28.5703H222.859V34.2853L217.145 34.2863Z" fill="#17181C"/>
</g>
<defs>
<clipPath id="clip0_94_9260">
<rect width="223" height="40" fill="white"/>
</clipPath>
</defs>
</svg>
