<svg width="80" height="40" viewBox="0 0 80 40" fill="none" xmlns="http://www.w3.org/2000/svg">
<path d="M0 11.4291V5.71484H5.71429V11.4291H0Z" fill="#17181C"/>
<path d="M5.71484 11.4291V5.71484H11.4291V11.4291H5.71484Z" fill="#17181C"/>
<path d="M11.4297 11.4291V5.71484H17.144V11.4291H11.4297Z" fill="#17181C"/>
<path d="M17.1406 11.4291V5.71484H22.8549V11.4291H17.1406Z" fill="#17181C"/>
<path d="M17.1406 17.142V11.4277H22.8549V17.142H17.1406Z" fill="#17181C"/>
<path d="M0 22.8569V17.1426H5.71429V22.8569H0Z" fill="#17181C" fill-opacity="0.1"/>
<rect width="5.71429" height="5.71429" transform="translate(5.71484 17.1426)" fill="#17181C"/>
<path d="M5.71484 22.8569V17.1426H11.4291V22.8569H5.71484Z" fill="#17181C" fill-opacity="0.1"/>
<path d="M11.4297 22.8569V17.1426H17.144V22.8569H11.4297Z" fill="#17181C"/>
<path d="M17.1445 22.8569V17.1426H22.8588V22.8569H17.1445Z" fill="#17181C" fill-opacity="0.1"/>
<rect width="5.71429" height="5.71429" transform="translate(0 22.8574)" fill="#17181C"/>
<path d="M0 28.5717V22.8574H5.71429V28.5717H0Z" fill="#17181C" fill-opacity="0.1"/>
<rect width="5.71429" height="5.71429" transform="translate(5.71484 22.8574)" fill="white"/>
<path d="M5.71484 28.5717V22.8574H11.4291V28.5717H5.71484Z" fill="#DEDEDF"/>
<path d="M11.4297 28.5717V22.8574H17.144V28.5717H11.4297Z" fill="#17181C" fill-opacity="0.1"/>
<path d="M17.1445 28.5717V22.8574H22.8588V28.5717H17.1445Z" fill="#17181C" fill-opacity="0.1"/>
<path d="M0 34.2866V28.5723H5.71429V34.2866H0Z" fill="#17181C"/>
<path d="M5.71484 34.2866V28.5723H11.4291V34.2866H5.71484Z" fill="#17181C"/>
<path d="M11.4297 34.2846V28.5703H17.144V34.2846H11.4297Z" fill="#17181C"/>
<path d="M17.1406 34.2866V28.5723H22.8549V34.2866H17.1406Z" fill="#17181C"/>
<path d="M28.5703 11.4291V5.71484H34.2846V11.4291H28.5703Z" fill="#17181C"/>
<path d="M34.2812 11.4291V5.71484H39.9955V11.4291H34.2812Z" fill="#17181C"/>
<path d="M40 11.4291V5.71484H45.7143V11.4291H40Z" fill="#17181C"/>
<path d="M45.7109 11.4291V5.71484H51.4252V11.4291H45.7109Z" fill="#17181C"/>
<path d="M28.5703 17.144V11.4297H34.2846V17.144H28.5703Z" fill="#17181C"/>
<path d="M45.7109 17.144V11.4297H51.4252V17.144H45.7109Z" fill="#17181C"/>
<path d="M28.5703 22.8569V17.1426H34.2846V22.8569H28.5703Z" fill="#17181C"/>
<path d="M34.2852 22.8569V17.1426H39.9994V22.8569H34.2852Z" fill="#17181C"/>
<path d="M40 22.8569V17.1426H45.7143V22.8569H40Z" fill="#17181C"/>
<path d="M45.7109 22.8569V17.1426H51.4252V22.8569H45.7109Z" fill="#17181C"/>
<path d="M28.5703 28.5717V22.8574H34.2846V28.5717H28.5703Z" fill="#17181C"/>
<path d="M34.2852 28.5717V22.8574H39.9994V28.5717H34.2852Z" fill="#17181C" fill-opacity="0.1"/>
<path d="M40 28.5717V22.8574H45.7143V28.5717H40Z" fill="#17181C" fill-opacity="0.1"/>
<path d="M45.7109 28.5717V22.8574H51.4252V28.5717H45.7109Z" fill="#17181C" fill-opacity="0.1"/>
<path d="M28.5703 34.2866V28.5723H34.2846V34.2866H28.5703Z" fill="#17181C"/>
<path d="M34.2852 34.2846V28.5703H39.9994V34.2846H34.2852Z" fill="#17181C"/>
<path d="M40 34.2846V28.5703H45.7143V34.2846H40Z" fill="#17181C"/>
<path d="M45.7109 34.2866V28.5723H51.4252V34.2866H45.7109Z" fill="#17181C"/>
<path d="M57.1445 11.4291V5.71484H62.8588V11.4291H57.1445Z" fill="#17181C"/>
<path d="M62.8594 11.4291V5.71484H68.5737V11.4291H62.8594Z" fill="#17181C"/>
<path d="M68.5703 11.4291V5.71484H74.2846V11.4291H68.5703Z" fill="#17181C"/>
<path d="M57.1445 17.142V11.4277H62.8588V17.142H57.1445Z" fill="#17181C"/>
<path d="M74.2891 17.144V11.4297H80.0033V17.144H74.2891Z" fill="#17181C"/>
<path d="M57.1445 22.8569V17.1426H62.8588V22.8569H57.1445Z" fill="#17181C"/>
<path d="M62.8594 22.8569V17.1426H68.5737V22.8569H62.8594Z" fill="#17181C" fill-opacity="0.1"/>
<path d="M68.5742 22.8569V17.1426H74.2885V22.8569H68.5742Z" fill="#17181C" fill-opacity="0.1"/>
<path d="M74.2891 22.8569V17.1426H80.0033V22.8569H74.2891Z" fill="#17181C"/>
<path d="M57.1445 28.5717V22.8574H62.8588V28.5717H57.1445Z" fill="#17181C"/>
<path d="M62.8594 28.5717V22.8574H68.5737V28.5717H62.8594Z" fill="#17181C" fill-opacity="0.1"/>
<path d="M68.5742 28.5717V22.8574H74.2885V28.5717H68.5742Z" fill="#17181C" fill-opacity="0.1"/>
<path d="M74.2891 28.5717V22.8574H80.0033V28.5717H74.2891Z" fill="#17181C"/>
<path d="M57.1445 34.2866V28.5723H62.8588V34.2866H57.1445Z" fill="#17181C"/>
<path d="M62.8594 34.2856V28.5713H68.5737V34.2856H62.8594Z" fill="#17181C" fill-opacity="0.1"/>
<path d="M68.5742 34.2856V28.5713H74.2885V34.2856H68.5742Z" fill="#17181C" fill-opacity="0.1"/>
<path d="M74.2891 34.2866V28.5723H80.0033V34.2866H74.2891Z" fill="#17181C"/>
</svg>
